<?xml version="1.0" encoding="UTF-8" standalone="no"?>
<svg
   width="100mm"
   height="100mm"
   version="1.1"
   viewBox="0 0 377.95 377.95"
   id="svg14"
   sodipodi:docname="frozen-block.svg"
   inkscape:export-filename="/home/villanelle/Documents/code/hacky-minecraft-mods/src/main/resources/assets/frozen-block.png"
   inkscape:export-xdpi="130.048"
   inkscape:export-ydpi="130.048"
   inkscape:version="1.1 (1:1.1+202105261518+ce6663b3b7)"
   xmlns:inkscape="http://www.inkscape.org/namespaces/inkscape"
   xmlns:sodipodi="http://sodipodi.sourceforge.net/DTD/sodipodi-0.dtd"
   xmlns:xlink="http://www.w3.org/1999/xlink"
   xmlns="http://www.w3.org/2000/svg"
   xmlns:svg="http://www.w3.org/2000/svg">
  <sodipodi:namedview
     id="namedview16"
     pagecolor="#ffffff"
     bordercolor="#666666"
     borderopacity="1.0"
     inkscape:pageshadow="2"
     inkscape:pageopacity="0.0"
     inkscape:pagecheckerboard="0"
     inkscape:document-units="mm"
     showgrid="false"
     inkscape:zoom="2.0611042"
     inkscape:cx="180.97096"
     inkscape:cy="189.21897"
     inkscape:window-width="1920"
     inkscape:window-height="1043"
     inkscape:window-x="0"
     inkscape:window-y="135"
     inkscape:window-maximized="1"
     inkscape:current-layer="svg14" />
  <defs
     id="defs8">
    <linearGradient
       id="linearGradient833">
      <stop
         stop-color="#59d8e6"
         offset="0"
         id="stop2" />
      <stop
         stop-color="#6759e6"
         offset="1"
         id="stop4" />
    </linearGradient>
    <linearGradient
       id="linearGradient835"
       x1="234.55"
       x2="284.04"
       y1="-19.219"
       y2="621.31"
       gradientUnits="userSpaceOnUse"
       xlink:href="#linearGradient833" />
  </defs>
  <g
     class=""
     transform="matrix(.72907 0 0 .72907 .4193 -.78768)"
     fill="url(#linearGradient835)"
     id="g12">
    <path
       d="m258.62 30.75-233.28 95.75 0.968 0.406v104.19l5.78 2.375 6.938 2.843 15.407 186.81 14.438-174.56 17.813 7.313 9.3435 233.53 9.3435-198.25 13.063 120.1 13.5-123.81 22.312 201.12 21.22-196.22 0.093 0.03 11.125 115.22 10.25-106.44 57.968 23.78 3.53 1.44 0.377-0.157 14.656 156.16 15.81-168.59 37.564-15.405 9.3435 191.44 9.3435-177.06 2.314-22.97 41.687-17.06 4.126 50.53 9.344 166.56 9.344-226.44 1.25-0.5 11.78 105.97 12.938-116.1 8.688-3.563 20.97 188.16 22.967-206.12 0.282-0.126v-104.31l0.686-0.28-233.28-95.75zm213.9 103.72v84.06l-27.56 11.282h-0.126v0.063l-4.156 1.688 9.812-88.063zm-395.34 13.31 13.187 5.407 9.406 86.688h-2.874l-26.439-10.845 6.718-81.25zm304.12 24.126 6.625 81.25-37.94 15.564 8.875-87.626 22.438-9.188zm-237.19 3.344 20.97 8.625 8.436 87.438-38.155-15.657 8.75-80.406zm174.06 22.563 8.187 80.562-35.125 14.375 8.188-87.25 18.75-7.688zm-111.59 3.093 42.062 17.25 8.22 87.375-58.063-23.842 7.78-80.782z"
       fill="url(#linearGradient835)"
       id="path10" />
  </g>
</svg>
